G04 DipTrace 3.3.1.3*
G04 BottomMask.gbr*
%MOIN*%
G04 #@! TF.FileFunction,Soldermask,Bot*
G04 #@! TF.Part,Single*
%ADD53R,0.074803X0.074803*%
%ADD54C,0.074803*%
%ADD61C,0.106299*%
%ADD62C,0.07874*%
%ADD63C,0.03937*%
%ADD67R,0.061024X0.023622*%
%ADD73R,0.086614X0.204724*%
%ADD75C,0.082677*%
%ADD76R,0.082677X0.082677*%
%ADD99R,0.165354X0.086614*%
%FSLAX26Y26*%
G04*
G70*
G90*
G75*
G01*
G04 BotMask*
%LPD*%
D61*
X3375938Y612835D3*
X566161Y612088D3*
X566534Y2753264D3*
D99*
X504681Y1393635D3*
D62*
X3052806Y1068936D3*
X3052150Y1028647D3*
X3052675Y988358D3*
X3052937Y956337D3*
X3052806Y919592D3*
X3051756Y877203D3*
X3052675Y843083D3*
X3052281Y796101D3*
D53*
X2548272Y501539D3*
D54*
X2648488Y501064D3*
X2748488D3*
X2848488D3*
X2948488D3*
X3048488D3*
X3148488D3*
D61*
X3376210Y2754037D3*
D76*
X1066932Y1367993D3*
D75*
X1064887Y765896D3*
D73*
X1060121Y749945D3*
X1064626Y1353871D3*
D53*
X1104487Y564496D3*
D54*
X1204298Y563698D3*
X1304446Y563378D3*
X1404293Y564358D3*
X1504709Y564100D3*
X1596287Y564496D3*
D53*
X2852873Y1429038D3*
D54*
X2952622Y1428644D3*
X3052738Y1429072D3*
X3152600Y1429661D3*
D76*
X504681Y1267812D3*
D67*
X622224Y1182091D3*
Y1207681D3*
X624450Y1281808D3*
X622224Y1258862D3*
X622310Y1232786D3*
D99*
X505308Y1081895D3*
D76*
X504681Y1193320D3*
D63*
X596073Y1146997D3*
X601747Y1316585D3*
D62*
X3052009Y1045982D3*
X3051615Y1002412D3*
X3052009Y934696D3*
X3051484Y889945D3*
X3050172Y815142D3*
X3052272Y851231D3*
M02*
