M48
INCH
T01C0.0191
T02C0.0394
T03C0.0433
T04C0.0787
T05C0.1063
%
T01
X+007080Y+010780
X+005513Y+009883
X+005495Y+007965
X+007500Y+006099
X+007469Y+004694
X+011676Y+007913
X+011815Y+009955
X+013120Y+010611
X+013479Y+009529
X+012439Y+011688
X+011917Y+013452
X+011336Y+014065
X+011921Y+014470
X+012807Y+014103
X+013833Y+014113
X+014285Y+013796
X+014939Y+014099
X+015662Y+013675
X+015991Y+014099
X+016318Y+013697
X+017089Y+014103
X+017764Y+013616
X+018213Y+014097
X+018803Y+014229
X+019293Y+014078
X+019474Y+013540
X+019828Y+013209
X+020253Y+014107
X+020808Y+013406
X+021364Y+013464
X+021943Y+013424
X+021592Y+014102
X+022364Y+014100
X+023439Y+014098
X+023711Y+013462
X+024632Y+013330
X+025313Y+013391
X+025140Y+012816
X+024334Y+011859
X+023731Y+010731
X+024006Y+010148
X+025613Y+009728
X+026153Y+009770
X+026154Y+010338
X+026149Y+008254
X+025501Y+007906
X+025339Y+007308
X+024876Y+007462
X+022935Y+006642
X+022145Y+006991
X+022247Y+008217
X+021268Y+008455
X+021722Y+009091
X+020360Y+009547
X+019607Y+010103
X+019480Y+010774
X+019972Y+011138
X+019774Y+011583
X+021062Y+011645
X+021771Y+011738
X+022175Y+011370
X+022209Y+010614
X+022916Y+012965
X+024548Y+014114
X+025696Y+014112
X+026322Y+013783
X+026799Y+014109
X+027478Y+014969
X+025957Y+015958
X+025085Y+015923
X+023784Y+015923
X+022888Y+015909
X+021628Y+015998
X+020756Y+015927
X+019620Y+015927
X+018619Y+015925
X+017616Y+015927
X+016461Y+015921
X+015420Y+015935
X+014498Y+016293
X+014084Y+015974
X+013590Y+016220
X+013172Y+015931
X+014217Y+012864
X+015343Y+011743
X+016349Y+011639
X+017848Y+010315
X+017703Y+009530
X+017764Y+008920
X+017775Y+008172
X+018540Y+007767
X+018124Y+007302
X+017022Y+006588
X+016354Y+004902
X+017241Y+004777
X+015147Y+007060
X+019667Y+007354
X+020222Y+007528
X+020779Y+007526
X+019485Y+008995
X+018593Y+013474
X+011426Y+019007
X+010698Y+018592
X+008882Y+019889
X+007309Y+020170
X+005923Y+019599
X+004896Y+021084
X+004919Y+023019
X+004943Y+025545
X+007421Y+026866
X+008259Y+028472
X+011080Y+028365
X+011068Y+026925
X+011035Y+025946
X+007085Y+015815
X+007735Y+015480
X+006197Y+015430
X+005818Y+016001
X+007943Y+013666
X+022417Y+005038
X+028819Y+011479
X+029256Y+012617
X+028310Y+012926
X+031305Y+013242
X+033448Y+014414
X+033459Y+014959
X+032961Y+015289
X+032599Y+015772
X+032172Y+017761
X+031706Y+017772
X+029890Y+017962
X+029573Y+018388
X+030306Y+019741
X+030480Y+020384
X+031384Y+020220
X+031848Y+020608
X+032383Y+019739
X+032868Y+019739
X+033715Y+020438
X+034202Y+022707
X+028702Y+022686
X+028697Y+025273
X+028700Y+027665
X+031704Y+027664
X+029415Y+019993
X+034894Y+017023
X+034905Y+014674
X+034732Y+013113
X+034217Y+012260
X+034147Y+011440
X+034927Y+010683
X+032668Y+008585
X+035004Y+007503
X+034732Y+004588
T02
X+005961Y+011470
X+006017Y+013166
T03
X+025483Y+005015
X+026485Y+005011
X+027485Y+005011
X+028485Y+005011
X+029485Y+005011
X+030485Y+005011
X+031485Y+005011
X+031526Y+014297
X+030527Y+014291
X+029526Y+014286
X+028529Y+014290
X+015963Y+005645
X+015047Y+005641
X+014043Y+005644
X+013044Y+005634
X+012043Y+005637
X+011045Y+005645
X+010649Y+007659
X+010669Y+013680
T04
X+030528Y+010689
X+030520Y+010460
X+030521Y+010286
X+030516Y+010024
X+030527Y+009884
X+030529Y+009563
X+030520Y+009347
X+030528Y+009196
X+030515Y+008899
X+030518Y+008772
X+030523Y+008512
X+030527Y+008431
X+030502Y+008151
X+030523Y+007961
T05
X+033759Y+006128
X+033762Y+027540
X+005665Y+027533
X+005662Y+006121
T00
M30
