G04 DipTrace 3.3.1.3*
G04 TopPaste.gbr*
%MOIN*%
G04 #@! TF.FileFunction,Paste,Top*
G04 #@! TF.Part,Single*
%AMOUTLINE2*
4,1,4,
-0.025591,0.021654,
0.025591,0.021654,
0.025591,-0.021654,
-0.025591,-0.021654,
-0.025591,0.021654,
0*%
%ADD70R,0.031496X0.110236*%
%ADD72R,0.003937X0.051181*%
%ADD78R,0.110236X0.035433*%
%ADD80R,0.051181X0.003937*%
%ADD82R,0.029528X0.007874*%
%ADD84R,0.098425X0.062992*%
%ADD86R,0.033465X0.017717*%
%ADD88R,0.043307X0.051181*%
%ADD92R,0.062992X0.098425*%
%ADD94R,0.070866X0.031496*%
%ADD96R,0.051181X0.043307*%
%ADD98R,0.017717X0.033465*%
%ADD102R,0.035433X0.031496*%
%ADD104R,0.031496X0.035433*%
%ADD106R,0.070866X0.015748*%
%ADD108R,0.027559X0.019685*%
%ADD110R,0.019685X0.027559*%
%ADD112R,0.120079X0.076772*%
%ADD114R,0.029528X0.076772*%
%ADD116R,0.007874X0.027559*%
%ADD118R,0.003937X0.055118*%
%ADD120R,0.055118X0.003937*%
%ADD128OUTLINE2*%
%FSLAX26Y26*%
G04*
G70*
G90*
G75*
G01*
G04 TopPaste*
%LPD*%
D120*
X1702140Y1176091D3*
Y1156406D3*
Y1136720D3*
Y1117035D3*
Y1097350D3*
Y1077665D3*
Y1057980D3*
Y1038295D3*
Y1018610D3*
Y998925D3*
Y979240D3*
Y959555D3*
Y939870D3*
Y920185D3*
Y900500D3*
Y880815D3*
Y861130D3*
Y841445D3*
Y821760D3*
Y802075D3*
Y782390D3*
Y762705D3*
Y743020D3*
Y723335D3*
Y703650D3*
D118*
X1769070Y636720D3*
X1788755D3*
X1808440D3*
X1828125D3*
X1847810D3*
X1867495D3*
X1887180D3*
X1906865D3*
X1926550D3*
X1946235D3*
X1965920D3*
X1985605D3*
X2005290D3*
X2024975D3*
X2044660D3*
X2064345D3*
X2084030D3*
X2103715D3*
X2123400D3*
X2143085D3*
X2162770D3*
X2182455D3*
X2202140D3*
X2221825D3*
X2241510D3*
D120*
X2308440Y703650D3*
Y723335D3*
Y743020D3*
Y762705D3*
Y782390D3*
Y802075D3*
Y821760D3*
Y841445D3*
Y861130D3*
Y880815D3*
Y900500D3*
Y920185D3*
Y939870D3*
Y959555D3*
Y979240D3*
Y998925D3*
Y1018610D3*
Y1038295D3*
Y1057980D3*
Y1077665D3*
Y1097350D3*
Y1117035D3*
Y1136720D3*
Y1156406D3*
Y1176091D3*
D118*
X2241510Y1243020D3*
X2221825D3*
X2202140D3*
X2182455D3*
X2162770D3*
X2143085D3*
X2123400D3*
X2103715D3*
X2084030D3*
X2064345D3*
X2044660D3*
X2024975D3*
X2005290D3*
X1985605D3*
X1965920D3*
X1946235D3*
X1926550D3*
X1906865D3*
X1887180D3*
X1867495D3*
X1847810D3*
X1828125D3*
X1808440D3*
X1788755D3*
X1769070D3*
D116*
X2596421Y1550003D3*
X2570831D3*
X2545240D3*
Y1463388D3*
X2570831D3*
X2596421D3*
X2483957Y1548925D3*
X2458366D3*
X2432776D3*
Y1462311D3*
X2458366D3*
X2483957D3*
X2371462Y1548825D3*
X2345871D3*
X2320281D3*
Y1462211D3*
X2345871D3*
X2371462D3*
X2264165Y1548904D3*
X2238575D3*
X2212984D3*
Y1462290D3*
X2238575D3*
X2264165D3*
X2163564Y1550348D3*
X2137974D3*
X2112383D3*
Y1463734D3*
X2137974D3*
X2163564D3*
X2705867Y1550394D3*
X2680277D3*
X2654686D3*
Y1463780D3*
X2680277D3*
X2705867D3*
X2052696Y1550037D3*
X2027105D3*
X2001514D3*
Y1463423D3*
X2027105D3*
X2052696D3*
X1947793Y1550041D3*
X1922202D3*
X1896612D3*
Y1463427D3*
X1922202D3*
X1947793D3*
X1848265Y1550732D3*
X1822675D3*
X1797084D3*
Y1464118D3*
X1822675D3*
X1848265D3*
X1623803Y1550556D3*
X1598213D3*
X1572622D3*
Y1463942D3*
X1598213D3*
X1623803D3*
X1520504Y1549568D3*
X1494913D3*
X1469323D3*
Y1462954D3*
X1494913D3*
X1520504D3*
X1402009Y1548344D3*
X1376419D3*
X1350828D3*
Y1461730D3*
X1376419D3*
X1402009D3*
X1307906Y1548440D3*
X1282315D3*
X1256724D3*
Y1461825D3*
X1282315D3*
X1307906D3*
D128*
X709552Y908500D3*
Y833697D3*
D114*
X1019438Y880290D3*
X928887D3*
X838336D3*
D112*
X928887Y651944D3*
D110*
X782648Y915715D3*
Y864534D3*
D108*
X951703Y491304D3*
X900522D3*
X901181Y548475D3*
X952362D3*
X1510278Y1058766D3*
X1561459D3*
D110*
X1693993Y568948D3*
Y517766D3*
D108*
X1675430Y1254281D3*
X1726612D3*
X2487425Y1184433D3*
X2436244D3*
X3262660Y806400D3*
X3211479D3*
D116*
X1731177Y1550014D3*
X1705587D3*
X1679996D3*
Y1463400D3*
X1705587D3*
X1731177D3*
D106*
X3013450Y1330940D3*
Y1280941D3*
Y1230941D3*
Y1180940D3*
X3304789D3*
Y1230941D3*
Y1280941D3*
Y1330940D3*
D108*
X2460386Y1277051D3*
X2511567D3*
X1180428Y663444D3*
X1231609D3*
X1232362Y718941D3*
X1181181D3*
X1546856Y757469D3*
X1598037D3*
D104*
X2296878Y566948D3*
Y500018D3*
D102*
X2425739Y1100332D3*
X2492668D3*
D110*
X2188273Y559602D3*
Y508421D3*
D108*
X2605962Y865521D3*
X2554781D3*
X2606164Y927587D3*
X2554983D3*
D110*
X577206Y1670522D3*
Y1721703D3*
D108*
X3499222Y1844013D3*
X3448041D3*
D98*
X2663896Y1681601D3*
X2738699D3*
X2701298Y1772152D3*
D104*
X2585681Y1710472D3*
Y1777402D3*
X2823966Y1709476D3*
Y1776406D3*
D110*
X674902Y1667635D3*
Y1718816D3*
D98*
X2578715Y1111018D3*
X2653518D3*
X2616117Y1201570D3*
D108*
X2716479Y1111228D3*
X2767660D3*
X1379789Y1203199D3*
X1430970D3*
X1379545Y1148273D3*
X1430726D3*
D110*
X1055114Y1059639D3*
Y1110820D3*
D96*
X972685Y1070563D3*
Y1145366D3*
D110*
X1500588Y1110664D3*
Y1209352D3*
D108*
X1414163Y980534D3*
X1465344D3*
X1413881Y914903D3*
X1465062D3*
D110*
X1257924Y1352337D3*
Y1301156D3*
X1367722Y1352017D3*
Y1300836D3*
X735531Y1668554D3*
Y1719735D3*
X2924045Y1665289D3*
Y1716470D3*
X2986762Y1666476D3*
Y1717657D3*
X3047541Y1666100D3*
Y1717281D3*
D94*
X1580469Y896836D3*
X1579944Y976757D3*
D108*
X1545017Y814879D3*
X1596198D3*
D92*
X2043728Y514740D3*
X1870500D3*
D110*
X2125794Y505978D3*
Y557159D3*
D108*
X763295Y1307136D3*
X712114D3*
D110*
X1780541Y538940D3*
Y487759D3*
D88*
X789936Y1087976D3*
X864739D3*
D110*
X2371852Y560395D3*
Y509214D3*
D86*
X1272825Y910762D3*
Y985566D3*
X1182274Y948164D3*
D110*
X3238412Y1468971D3*
Y1417790D3*
D108*
X1104634Y1789071D3*
X1053453D3*
X2529189Y1346726D3*
X2580370D3*
D84*
X1351559Y844003D3*
Y670774D3*
D110*
X1464744Y660786D3*
Y711967D3*
D82*
X3383075Y1092331D3*
D80*
X3494226Y1028289D3*
Y1008604D3*
Y988919D3*
Y969234D3*
Y949549D3*
Y929864D3*
Y910178D3*
Y890493D3*
D82*
X3404102Y829454D3*
D78*
X3393262Y830571D3*
X3394991Y1090584D3*
D72*
X575500Y1905430D3*
X595188D3*
X614875D3*
X634563D3*
X654251D3*
X673938D3*
X693626D3*
X713314D3*
X733000D3*
X752688D3*
X772375D3*
X792063D3*
X811751D3*
X831438D3*
X851126D3*
X870814D3*
X890500D3*
X910188D3*
X929875D3*
X949563D3*
X969251D3*
X988938D3*
X1008626D3*
X1028314D3*
D70*
X498189Y1993871D3*
X1087751Y2006722D3*
D72*
X2922875Y1907005D3*
X2942563D3*
X2962251D3*
X2981938D3*
X3001626D3*
X3021314D3*
X3041001D3*
X3060689D3*
X3080375D3*
X3100063D3*
X3119751D3*
X3139438D3*
X3159126D3*
X3178814D3*
X3198501D3*
X3218189D3*
X3237875D3*
X3257563D3*
X3277251D3*
X3296938D3*
X3316626D3*
X3336314D3*
X3356001D3*
X3375689D3*
D70*
X2845564Y1995446D3*
X3435126Y2008297D3*
M02*
